<?xml version="1.0" encoding="utf-8" standalone="no"?>
<!DOCTYPE svg PUBLIC "-//W3C//DTD SVG 1.1//EN"
  "http://www.w3.org/Graphics/SVG/1.1/DTD/svg11.dtd">
<!-- Created with matplotlib (https://matplotlib.org/) -->
<svg height="326.937261pt" version="1.1" viewBox="0 0 440.354056 326.937261" width="440.354056pt" xmlns="http://www.w3.org/2000/svg" xmlns:xlink="http://www.w3.org/1999/xlink">
 <defs>
  <style type="text/css">
*{stroke-linecap:butt;stroke-linejoin:round;}
  </style>
 </defs>
 <g id="figure_1">
  <g id="patch_1">
   <path d="M 0 326.937261 
L 440.354056 326.937261 
L 440.354056 0 
L 0 0 
z
" style="fill:#ffffff;"/>
  </g>
  <g id="axes_1">
   <g id="patch_2">
    <path d="M 76.034056 273.312 
L 433.154056 273.312 
L 433.154056 7.2 
L 76.034056 7.2 
z
" style="fill:#ffffff;"/>
   </g>
   <g id="matplotlib.axis_1">
    <g id="xtick_1">
     <g id="line2d_1">
      <defs>
       <path d="M 0 0 
L 0 3.5 
" id="mf1621d64e2" style="stroke:#000000;stroke-width:0.8;"/>
      </defs>
      <g>
       <use style="stroke:#000000;stroke-width:0.8;" x="92.266783" xlink:href="#mf1621d64e2" y="273.312"/>
      </g>
     </g>
     <g id="text_1">
      <!-- $10^{0}$ -->
      <defs>
       <path d="M 26.59375 63.40625 
C 26.59375 65.5 26.5 65.5 25.09375 65.5 
C 21.203125 61.1875 15.296875 59.796875 9.703125 59.796875 
C 9.40625 59.796875 8.90625 59.796875 8.796875 59.5 
C 8.703125 59.296875 8.703125 59.09375 8.703125 57 
C 11.796875 57 17 57.59375 21 59.984375 
L 21 7.203125 
C 21 3.6875 20.796875 2.5 12.203125 2.5 
L 9.203125 2.5 
L 9.203125 0 
C 14 0 19 0 23.796875 0 
C 28.59375 0 33.59375 0 38.40625 0 
L 38.40625 2.5 
L 35.40625 2.5 
C 26.796875 2.5 26.59375 3.59375 26.59375 7.15625 
z
" id="CMR17-49"/>
       <path d="M 42 31.640625 
C 42 37.75 41.90625 48.125 37.703125 56.109375 
C 34 63.109375 28.09375 65.59375 22.90625 65.59375 
C 18.09375 65.59375 12 63.40625 8.203125 56.203125 
C 4.203125 48.71875 3.796875 39.4375 3.796875 31.640625 
C 3.796875 25.953125 3.90625 17.28125 7 9.671875 
C 11.296875 -0.609375 19 -2 22.90625 -2 
C 27.5 -2 34.5 -0.109375 38.59375 9.375 
C 41.59375 16.28125 42 24.359375 42 31.640625 
z
M 22.90625 -0.40625 
C 16.5 -0.40625 12.703125 5.078125 11.296875 12.6875 
C 10.203125 18.5625 10.203125 27.15625 10.203125 32.75 
C 10.203125 40.4375 10.203125 46.828125 11.5 52.921875 
C 13.40625 61.390625 19 64 22.90625 64 
C 27 64 32.296875 61.296875 34.203125 53.125 
C 35.5 47.4375 35.59375 40.734375 35.59375 32.75 
C 35.59375 26.25 35.59375 18.265625 34.40625 12.375 
C 32.296875 1.484375 26.40625 -0.40625 22.90625 -0.40625 
z
" id="CMR17-48"/>
      </defs>
      <g transform="translate(79.714459 294.148997)scale(0.2 -0.2)">
       <use transform="scale(0.996264)" xlink:href="#CMR17-49"/>
       <use transform="translate(45.690477 0)scale(0.996264)" xlink:href="#CMR17-48"/>
       <use transform="translate(91.380954 36.153639)scale(0.697382)" xlink:href="#CMR17-48"/>
      </g>
     </g>
    </g>
    <g id="xtick_2">
     <g id="line2d_2">
      <g>
       <use style="stroke:#000000;stroke-width:0.8;" x="254.594056" xlink:href="#mf1621d64e2" y="273.312"/>
      </g>
     </g>
     <g id="text_2">
      <!-- $10^{1}$ -->
      <g transform="translate(242.041732 294.148997)scale(0.2 -0.2)">
       <use transform="scale(0.996264)" xlink:href="#CMR17-49"/>
       <use transform="translate(45.690477 0)scale(0.996264)" xlink:href="#CMR17-48"/>
       <use transform="translate(91.380954 36.153639)scale(0.697382)" xlink:href="#CMR17-49"/>
      </g>
     </g>
    </g>
    <g id="xtick_3">
     <g id="line2d_3">
      <g>
       <use style="stroke:#000000;stroke-width:0.8;" x="416.921329" xlink:href="#mf1621d64e2" y="273.312"/>
      </g>
     </g>
     <g id="text_3">
      <!-- $10^{2}$ -->
      <defs>
       <path d="M 41.703125 15.453125 
L 39.90625 15.453125 
C 38.90625 8.375 38.09375 7.171875 37.703125 6.5625 
C 37.203125 5.765625 30 5.765625 28.59375 5.765625 
L 9.40625 5.765625 
C 13 9.671875 20 16.75 28.5 24.953125 
C 34.59375 30.734375 41.703125 37.53125 41.703125 47.421875 
C 41.703125 59.21875 32.296875 66 21.796875 66 
C 10.796875 66 4.09375 56.3125 4.09375 47.34375 
C 4.09375 43.4375 7 42.9375 8.203125 42.9375 
C 9.203125 42.9375 12.203125 43.546875 12.203125 47.03125 
C 12.203125 50.109375 9.59375 51 8.203125 51 
C 7.59375 51 7 50.90625 6.59375 50.703125 
C 8.5 59.21875 14.296875 63.40625 20.40625 63.40625 
C 29.09375 63.40625 34.796875 56.515625 34.796875 47.421875 
C 34.796875 38.734375 29.703125 31.25 24 24.75 
L 4.09375 2.28125 
L 4.09375 0 
L 39.296875 0 
z
" id="CMR17-50"/>
      </defs>
      <g transform="translate(404.369004 294.148997)scale(0.2 -0.2)">
       <use transform="scale(0.996264)" xlink:href="#CMR17-49"/>
       <use transform="translate(45.690477 0)scale(0.996264)" xlink:href="#CMR17-48"/>
       <use transform="translate(91.380954 36.153639)scale(0.697382)" xlink:href="#CMR17-50"/>
      </g>
     </g>
    </g>
    <g id="xtick_4">
     <g id="line2d_4">
      <defs>
       <path d="M 0 0 
L 0 2 
" id="m90719d13eb" style="stroke:#000000;stroke-width:0.6;"/>
      </defs>
      <g>
       <use style="stroke:#000000;stroke-width:0.6;" x="76.535645" xlink:href="#m90719d13eb" y="273.312"/>
      </g>
     </g>
    </g>
    <g id="xtick_5">
     <g id="line2d_5">
      <g>
       <use style="stroke:#000000;stroke-width:0.6;" x="84.839095" xlink:href="#m90719d13eb" y="273.312"/>
      </g>
     </g>
    </g>
    <g id="xtick_6">
     <g id="line2d_6">
      <g>
       <use style="stroke:#000000;stroke-width:0.6;" x="141.132162" xlink:href="#m90719d13eb" y="273.312"/>
      </g>
     </g>
    </g>
    <g id="xtick_7">
     <g id="line2d_7">
      <g>
       <use style="stroke:#000000;stroke-width:0.6;" x="169.716575" xlink:href="#m90719d13eb" y="273.312"/>
      </g>
     </g>
    </g>
    <g id="xtick_8">
     <g id="line2d_8">
      <g>
       <use style="stroke:#000000;stroke-width:0.6;" x="189.99754" xlink:href="#m90719d13eb" y="273.312"/>
      </g>
     </g>
    </g>
    <g id="xtick_9">
     <g id="line2d_9">
      <g>
       <use style="stroke:#000000;stroke-width:0.6;" x="205.728678" xlink:href="#m90719d13eb" y="273.312"/>
      </g>
     </g>
    </g>
    <g id="xtick_10">
     <g id="line2d_10">
      <g>
       <use style="stroke:#000000;stroke-width:0.6;" x="218.581954" xlink:href="#m90719d13eb" y="273.312"/>
      </g>
     </g>
    </g>
    <g id="xtick_11">
     <g id="line2d_11">
      <g>
       <use style="stroke:#000000;stroke-width:0.6;" x="229.449243" xlink:href="#m90719d13eb" y="273.312"/>
      </g>
     </g>
    </g>
    <g id="xtick_12">
     <g id="line2d_12">
      <g>
       <use style="stroke:#000000;stroke-width:0.6;" x="238.862918" xlink:href="#m90719d13eb" y="273.312"/>
      </g>
     </g>
    </g>
    <g id="xtick_13">
     <g id="line2d_13">
      <g>
       <use style="stroke:#000000;stroke-width:0.6;" x="247.166367" xlink:href="#m90719d13eb" y="273.312"/>
      </g>
     </g>
    </g>
    <g id="xtick_14">
     <g id="line2d_14">
      <g>
       <use style="stroke:#000000;stroke-width:0.6;" x="303.459434" xlink:href="#m90719d13eb" y="273.312"/>
      </g>
     </g>
    </g>
    <g id="xtick_15">
     <g id="line2d_15">
      <g>
       <use style="stroke:#000000;stroke-width:0.6;" x="332.043848" xlink:href="#m90719d13eb" y="273.312"/>
      </g>
     </g>
    </g>
    <g id="xtick_16">
     <g id="line2d_16">
      <g>
       <use style="stroke:#000000;stroke-width:0.6;" x="352.324813" xlink:href="#m90719d13eb" y="273.312"/>
      </g>
     </g>
    </g>
    <g id="xtick_17">
     <g id="line2d_17">
      <g>
       <use style="stroke:#000000;stroke-width:0.6;" x="368.055951" xlink:href="#m90719d13eb" y="273.312"/>
      </g>
     </g>
    </g>
    <g id="xtick_18">
     <g id="line2d_18">
      <g>
       <use style="stroke:#000000;stroke-width:0.6;" x="380.909226" xlink:href="#m90719d13eb" y="273.312"/>
      </g>
     </g>
    </g>
    <g id="xtick_19">
     <g id="line2d_19">
      <g>
       <use style="stroke:#000000;stroke-width:0.6;" x="391.776516" xlink:href="#m90719d13eb" y="273.312"/>
      </g>
     </g>
    </g>
    <g id="xtick_20">
     <g id="line2d_20">
      <g>
       <use style="stroke:#000000;stroke-width:0.6;" x="401.190191" xlink:href="#m90719d13eb" y="273.312"/>
      </g>
     </g>
    </g>
    <g id="xtick_21">
     <g id="line2d_21">
      <g>
       <use style="stroke:#000000;stroke-width:0.6;" x="409.49364" xlink:href="#m90719d13eb" y="273.312"/>
      </g>
     </g>
    </g>
    <g id="text_4">
     <!-- $k$ -->
     <defs>
      <path d="M 28.09375 66.515625 
C 28.203125 66.921875 28.40625 67.515625 28.40625 68 
C 28.40625 69 27.40625 69 27.203125 69 
C 27.09375 69 23.5 68.640625 21.703125 68.390625 
C 20 68.390625 18.5 68.09375 16.703125 68.09375 
C 14.296875 67.890625 13.59375 67.796875 13.59375 66 
C 13.59375 65 14.59375 65 15.59375 65 
C 20.703125 65 20.703125 64.109375 20.703125 63.125 
C 20.703125 62.734375 20.703125 62.53125 20.203125 60.75 
L 5.90625 3.875 
C 5.5 2.375 5.5 2.1875 5.5 1.578125 
C 5.5 -0.59375 7.203125 -1 8.203125 -1 
C 11 -1 11.59375 1.203125 12.40625 4.296875 
L 17.09375 22.953125 
C 24.296875 22.15625 28.59375 19.15625 28.59375 14.375 
C 28.59375 13.765625 28.59375 13.375 28.296875 11.875 
C 27.90625 10.375 27.90625 9.1875 27.90625 8.6875 
C 27.90625 2.890625 31.703125 -1 36.796875 -1 
C 41.40625 -1 43.796875 3.1875 44.59375 4.59375 
C 46.703125 8.28125 48 13.875 48 14.265625 
C 48 14.765625 47.59375 15.171875 47 15.171875 
C 46.09375 15.171875 46 14.765625 45.59375 13.171875 
C 44.203125 7.984375 42.09375 1 37 1 
C 35 1 33.703125 2 33.703125 5.78125 
C 33.703125 7.6875 34.09375 9.875 34.5 11.375 
C 34.90625 13.171875 34.90625 13.265625 34.90625 14.46875 
C 34.90625 20.359375 29.59375 23.65625 20.40625 24.84375 
C 24 27.046875 27.59375 30.9375 29 32.4375 
C 34.703125 38.8125 38.59375 42.015625 43.203125 42.015625 
C 45.5 42.015625 46.09375 41.40625 46.796875 40.8125 
C 43.09375 40.40625 41.703125 37.8125 41.703125 35.828125 
C 41.703125 33.421875 43.59375 32.625 45 32.625 
C 47.703125 32.625 50.09375 34.921875 50.09375 38.125 
C 50.09375 41.015625 47.796875 44 43.296875 44 
C 37.796875 44 33.296875 40.109375 26.203125 32.125 
C 25.203125 30.9375 21.5 27.140625 17.796875 25.75 
z
" id="CMMI12-107"/>
     </defs>
     <g transform="translate(249.520537 315.861627)scale(0.2 -0.2)">
      <use transform="scale(0.996264)" xlink:href="#CMMI12-107"/>
     </g>
    </g>
   </g>
   <g id="matplotlib.axis_2">
    <g id="ytick_1">
     <g id="line2d_22">
      <defs>
       <path d="M 0 0 
L -3.5 0 
" id="m5bb4d55676" style="stroke:#000000;stroke-width:0.8;"/>
      </defs>
      <g>
       <use style="stroke:#000000;stroke-width:0.8;" x="76.034056" xlink:href="#m5bb4d55676" y="212.528616"/>
      </g>
     </g>
     <g id="text_5">
      <!-- $10^{-1}$ -->
      <defs>
       <path d="M 65.90625 23 
C 67.59375 23 69.40625 23 69.40625 25 
C 69.40625 27 67.59375 27 65.90625 27 
L 11.796875 27 
C 10.09375 27 8.296875 27 8.296875 25 
C 8.296875 23 10.09375 23 11.796875 23 
z
" id="CMSY10-0"/>
      </defs>
      <g transform="translate(33.081218 219.447115)scale(0.2 -0.2)">
       <use transform="scale(0.996264)" xlink:href="#CMR17-49"/>
       <use transform="translate(45.690477 0)scale(0.996264)" xlink:href="#CMR17-48"/>
       <use transform="translate(91.380954 36.153639)scale(0.697382)" xlink:href="#CMSY10-0"/>
       <use transform="translate(145.621947 36.153639)scale(0.697382)" xlink:href="#CMR17-49"/>
      </g>
     </g>
    </g>
    <g id="ytick_2">
     <g id="line2d_23">
      <g>
       <use style="stroke:#000000;stroke-width:0.8;" x="76.034056" xlink:href="#m5bb4d55676" y="50.889697"/>
      </g>
     </g>
     <g id="text_6">
      <!-- $10^{0}$ -->
      <g transform="translate(43.929407 57.808195)scale(0.2 -0.2)">
       <use transform="scale(0.996264)" xlink:href="#CMR17-49"/>
       <use transform="translate(45.690477 0)scale(0.996264)" xlink:href="#CMR17-48"/>
       <use transform="translate(91.380954 36.153639)scale(0.697382)" xlink:href="#CMR17-48"/>
      </g>
     </g>
    </g>
    <g id="ytick_3">
     <g id="line2d_24">
      <defs>
       <path d="M 0 0 
L -2 0 
" id="m307ea6920e" style="stroke:#000000;stroke-width:0.6;"/>
      </defs>
      <g>
       <use style="stroke:#000000;stroke-width:0.6;" x="76.034056" xlink:href="#m307ea6920e" y="261.18678"/>
      </g>
     </g>
    </g>
    <g id="ytick_4">
     <g id="line2d_25">
      <g>
       <use style="stroke:#000000;stroke-width:0.6;" x="76.034056" xlink:href="#m307ea6920e" y="248.388009"/>
      </g>
     </g>
    </g>
    <g id="ytick_5">
     <g id="line2d_26">
      <g>
       <use style="stroke:#000000;stroke-width:0.6;" x="76.034056" xlink:href="#m307ea6920e" y="237.566802"/>
      </g>
     </g>
    </g>
    <g id="ytick_6">
     <g id="line2d_27">
      <g>
       <use style="stroke:#000000;stroke-width:0.6;" x="76.034056" xlink:href="#m307ea6920e" y="228.193046"/>
      </g>
     </g>
    </g>
    <g id="ytick_7">
     <g id="line2d_28">
      <g>
       <use style="stroke:#000000;stroke-width:0.6;" x="76.034056" xlink:href="#m307ea6920e" y="219.924808"/>
      </g>
     </g>
    </g>
    <g id="ytick_8">
     <g id="line2d_29">
      <g>
       <use style="stroke:#000000;stroke-width:0.6;" x="76.034056" xlink:href="#m307ea6920e" y="163.870453"/>
      </g>
     </g>
    </g>
    <g id="ytick_9">
     <g id="line2d_30">
      <g>
       <use style="stroke:#000000;stroke-width:0.6;" x="76.034056" xlink:href="#m307ea6920e" y="135.407252"/>
      </g>
     </g>
    </g>
    <g id="ytick_10">
     <g id="line2d_31">
      <g>
       <use style="stroke:#000000;stroke-width:0.6;" x="76.034056" xlink:href="#m307ea6920e" y="115.21229"/>
      </g>
     </g>
    </g>
    <g id="ytick_11">
     <g id="line2d_32">
      <g>
       <use style="stroke:#000000;stroke-width:0.6;" x="76.034056" xlink:href="#m307ea6920e" y="99.54786"/>
      </g>
     </g>
    </g>
    <g id="ytick_12">
     <g id="line2d_33">
      <g>
       <use style="stroke:#000000;stroke-width:0.6;" x="76.034056" xlink:href="#m307ea6920e" y="86.749089"/>
      </g>
     </g>
    </g>
    <g id="ytick_13">
     <g id="line2d_34">
      <g>
       <use style="stroke:#000000;stroke-width:0.6;" x="76.034056" xlink:href="#m307ea6920e" y="75.927882"/>
      </g>
     </g>
    </g>
    <g id="ytick_14">
     <g id="line2d_35">
      <g>
       <use style="stroke:#000000;stroke-width:0.6;" x="76.034056" xlink:href="#m307ea6920e" y="66.554127"/>
      </g>
     </g>
    </g>
    <g id="ytick_15">
     <g id="line2d_36">
      <g>
       <use style="stroke:#000000;stroke-width:0.6;" x="76.034056" xlink:href="#m307ea6920e" y="58.285888"/>
      </g>
     </g>
    </g>
    <g id="text_7">
     <!-- $f(\mathbf{x}^k)$ -->
     <defs>
      <path d="M 44.59375 40.09375 
C 46.59375 40.09375 47.40625 40.09375 47.40625 42 
C 47.40625 43 46.59375 43 44.796875 43 
L 36.703125 43 
C 38.59375 53.578125 40 60.890625 40.796875 64.171875 
C 41.40625 66.640625 43.5 69 46.09375 69 
C 48.203125 69 50.296875 68.09375 51.296875 67.15625 
C 47.40625 66.75 46.203125 63.78125 46.203125 62.015625 
C 46.203125 59.953125 47.703125 58.734375 49.59375 58.734375 
C 51.59375 58.734375 54.59375 60.46875 54.59375 64.359375 
C 54.59375 68.640625 50.40625 71 46 71 
C 41.703125 71 37.5 67.71875 35.5 63.71875 
C 33.703125 60.125 32.703125 56.421875 30.40625 43 
L 23.703125 43 
C 21.796875 43 20.796875 43 20.796875 41.203125 
C 20.796875 40.09375 21.40625 40.09375 23.40625 40.09375 
L 29.796875 40.09375 
C 28 30.875 23.90625 8.46875 21.59375 -2.140625 
C 19.90625 -10.765625 18.40625 -18 13.40625 -18 
C 13.09375 -18 10.203125 -18 8.40625 -16.109375 
C 13.5 -15.703125 13.5 -11.34375 13.5 -11.25 
C 13.5 -9.265625 12 -8.078125 10.09375 -8.078125 
C 8.09375 -8.078125 5.09375 -9.765625 5.09375 -13.546875 
C 5.09375 -17.8125 9.5 -20 13.40625 -20 
C 23.59375 -20 27.796875 -1.84375 28.90625 3.109375 
C 30.703125 10.75 35.59375 37.125 36.09375 40.09375 
z
" id="CMMI12-102"/>
      <path d="M 30.59375 -24.390625 
C 30.59375 -24.296875 30.59375 -24.09375 30.296875 -23.796875 
C 25.703125 -19.125 13.40625 -6.359375 13.40625 24.703125 
C 13.40625 55.765625 25.5 68.421875 30.40625 73.390625 
C 30.40625 73.5 30.59375 73.703125 30.59375 74 
C 30.59375 74.296875 30.296875 74.5 29.90625 74.5 
C 28.796875 74.5 20.296875 67.125 15.40625 56.15625 
C 10.40625 45.109375 9 34.359375 9 24.8125 
C 9 17.625 9.703125 5.484375 15.703125 -7.359375 
C 20.5 -17.734375 28.703125 -25 29.90625 -25 
C 30.40625 -25 30.59375 -24.796875 30.59375 -24.390625 
z
" id="CMR17-40"/>
      <path d="M 33.703125 24.484375 
L 45.296875 37.734375 
C 46.40625 39.03125 47.296875 39.828125 55.59375 39.828125 
L 55.59375 44 
C 50 44 49.796875 44 46.40625 44 
C 43.5 44 39.203125 44 36.40625 44.09375 
L 36.40625 39.828125 
C 38.296875 39.828125 40.40625 39.328125 40.40625 38.625 
C 40.40625 38.4375 39.90625 37.734375 39.703125 37.53125 
L 31 27.78125 
L 21.09375 39.828125 
L 25.296875 39.828125 
L 25.296875 44.09375 
C 23 44 16.203125 44 13.5 44 
C 10.5 44 5.09375 44 2.296875 44.09375 
L 2.296875 39.828125 
L 9.40625 39.828125 
L 25 20.90625 
L 12 6.265625 
C 10.796875 4.875 10.09375 4.171875 1.796875 4.171875 
L 1.796875 0 
C 7.796875 0 8 0 11.09375 0 
C 14 0 18.203125 0 21 -0.09375 
L 21 4.171875 
C 19.09375 4.171875 17 4.671875 17 5.375 
C 17 5.46875 17 5.5625 17.703125 6.359375 
L 27.703125 17.625 
L 38.796875 4.171875 
L 34.59375 4.171875 
L 34.59375 -0.09375 
C 37 0 43.703125 0 46.5 0 
C 49.5 0 54.796875 0 57.59375 -0.09375 
L 57.59375 4.171875 
L 50.59375 4.171875 
z
" id="CMBX12-120"/>
      <path d="M 26.296875 24.703125 
C 26.296875 31.875 25.59375 44.015625 19.59375 56.859375 
C 14.796875 67.234375 6.59375 74.5 5.40625 74.5 
C 5.09375 74.5 4.703125 74.390625 4.703125 73.890625 
C 4.703125 73.703125 4.796875 73.59375 4.90625 73.390625 
C 9.703125 68.40625 21.90625 55.75 21.90625 24.75 
C 21.90625 -6.359375 9.796875 -19.015625 4.90625 -24.015625 
C 4.796875 -24.203125 4.703125 -24.3125 4.703125 -24.5 
C 4.703125 -25 5.09375 -25 5.40625 -25 
C 6.5 -25 15 -17.625 19.90625 -6.65625 
C 24.90625 4.390625 26.296875 15.140625 26.296875 24.703125 
z
" id="CMR17-41"/>
     </defs>
     <g transform="translate(24.116574 163.134082)rotate(-90)scale(0.2 -0.2)">
      <use transform="scale(0.996264)" xlink:href="#CMMI12-102"/>
      <use transform="translate(58.720305 0)scale(0.996264)" xlink:href="#CMR17-40"/>
      <use transform="translate(94.001073 0)scale(0.996264)" xlink:href="#CMBX12-120"/>
      <use transform="translate(153.154248 36.153639)scale(0.697382)" xlink:href="#CMMI12-107"/>
      <use transform="translate(191.507631 0)scale(0.996264)" xlink:href="#CMR17-41"/>
     </g>
    </g>
   </g>
   <g id="line2d_37">
    <path clip-path="url(#pb259b6f3cf)" d="M -1 95.23533 
L 92.266783 95.278987 
L 141.132162 72.036849 
L 169.716575 86.337426 
L 189.99754 120.267313 
L 205.728678 70.531313 
L 218.581954 79.75272 
L 229.449243 146.480584 
L 238.862918 123.51606 
L 247.166367 96.312421 
L 254.594056 112.711259 
L 261.313218 141.225826 
L 267.447332 136.839917 
L 273.09017 117.049787 
L 278.314622 142.269242 
L 283.17847 122.627691 
L 287.728296 146.56891 
L 292.002201 149.563577 
L 296.031746 127.130739 
L 299.843368 148.84123 
L 303.459434 129.341661 
L 306.899035 150.726167 
L 310.178596 149.430406 
L 313.312349 154.25321 
L 316.31271 148.930386 
L 319.190572 180.053613 
L 321.955548 142.00418 
L 324.61616 157.283351 
L 327.18 159.979703 
L 329.653862 179.789884 
L 332.043848 189.245172 
L 334.35546 135.657567 
L 336.593674 157.588688 
L 338.76301 186.874066 
L 340.867579 187.182352 
L 342.911138 161.505388 
L 344.897124 179.541774 
L 346.828692 167.623817 
L 348.708746 189.447094 
L 350.539962 191.595312 
L 352.324813 173.922916 
L 354.065588 182.764634 
L 355.764414 191.905041 
L 357.423263 158.087054 
L 359.043974 186.402953 
L 360.628262 190.521422 
L 362.177727 189.588446 
L 363.693868 214.294593 
L 365.178088 174.916274 
L 366.631703 190.566514 
L 368.055951 203.202759 
L 369.451993 203.431672 
L 370.820926 194.165391 
L 372.163783 207.040307 
L 373.481538 186.178781 
L 374.775112 209.257045 
L 376.045378 208.458723 
L 377.29316 180.915031 
L 378.51924 217.301858 
L 379.724361 188.61967 
L 380.909226 209.938848 
L 382.074506 193.59305 
L 383.220838 206.163281 
L 384.348828 223.150875 
L 385.459053 217.324418 
L 386.552064 178.094806 
L 387.628388 207.04869 
L 388.688526 208.305585 
L 389.732957 215.002892 
L 390.762141 238.547835 
L 391.776516 191.823475 
L 392.776502 207.367453 
L 393.762502 228.936735 
L 394.734901 229.194787 
L 395.694071 209.984131 
L 396.640364 227.485783 
L 397.574124 209.3682 
L 398.495678 235.329966 
L 399.40534 202.802127 
L 400.303414 206.68668 
L 401.190191 237.567164 
L 402.065952 252.134201 
L 402.930967 200.22237 
L 403.785496 215.972098 
L 404.629792 216.139526 
L 405.464096 241.626197 
L 406.288641 253.180123 
L 407.103654 201.228132 
L 407.909352 221.770358 
L 408.705947 233.150943 
L 409.49364 248.685928 
L 410.27263 218.331183 
L 411.043106 239.536487 
L 411.805252 229.015014 
L 412.559247 254.319896 
L 413.305262 261.216 
L 414.043466 215.678685 
L 414.774021 244.571778 
L 415.497082 240.65412 
L 416.212802 260.015487 
L 416.921329 229.241833 
" style="fill:none;stroke:#0000e6;stroke-linecap:square;stroke-opacity:0.8;stroke-width:0.5;"/>
   </g>
   <g id="line2d_38">
    <path clip-path="url(#pb259b6f3cf)" d="M -1 95.23533 
L 92.266783 95.278987 
L 141.132162 95.278987 
L 169.716575 95.278987 
L 189.99754 120.267313 
L 205.728678 120.267313 
L 218.581954 120.267313 
L 229.449243 146.480584 
L 238.862918 146.480584 
L 247.166367 146.480584 
L 254.594056 146.480584 
L 261.313218 146.480584 
L 267.447332 146.480584 
L 273.09017 146.480584 
L 278.314622 146.480584 
L 283.17847 146.480584 
L 287.728296 146.56891 
L 292.002201 149.563577 
L 296.031746 149.563577 
L 299.843368 149.563577 
L 303.459434 149.563577 
L 306.899035 150.726167 
L 310.178596 150.726167 
L 313.312349 154.25321 
L 316.31271 154.25321 
L 319.190572 180.053613 
L 321.955548 180.053613 
L 324.61616 180.053613 
L 327.18 180.053613 
L 329.653862 180.053613 
L 332.043848 189.245172 
L 334.35546 189.245172 
L 336.593674 189.245172 
L 338.76301 189.245172 
L 340.867579 189.245172 
L 342.911138 189.245172 
L 344.897124 189.245172 
L 346.828692 189.245172 
L 348.708746 189.447094 
L 350.539962 191.595312 
L 352.324813 191.595312 
L 354.065588 191.595312 
L 355.764414 191.905041 
L 357.423263 191.905041 
L 359.043974 191.905041 
L 360.628262 191.905041 
L 362.177727 191.905041 
L 363.693868 214.294593 
L 365.178088 214.294593 
L 366.631703 214.294593 
L 368.055951 214.294593 
L 369.451993 214.294593 
L 370.820926 214.294593 
L 372.163783 214.294593 
L 373.481538 214.294593 
L 374.775112 214.294593 
L 376.045378 214.294593 
L 377.29316 214.294593 
L 378.51924 217.301858 
L 379.724361 217.301858 
L 380.909226 217.301858 
L 382.074506 217.301858 
L 383.220838 217.301858 
L 384.348828 223.150875 
L 385.459053 223.150875 
L 386.552064 223.150875 
L 387.628388 223.150875 
L 388.688526 223.150875 
L 389.732957 223.150875 
L 390.762141 238.547835 
L 391.776516 238.547835 
L 392.776502 238.547835 
L 393.762502 238.547835 
L 394.734901 238.547835 
L 395.694071 238.547835 
L 396.640364 238.547835 
L 397.574124 238.547835 
L 398.495678 238.547835 
L 399.40534 238.547835 
L 400.303414 238.547835 
L 401.190191 238.547835 
L 402.065952 252.134201 
L 402.930967 252.134201 
L 403.785496 252.134201 
L 404.629792 252.134201 
L 405.464096 252.134201 
L 406.288641 253.180123 
L 407.103654 253.180123 
L 407.909352 253.180123 
L 408.705947 253.180123 
L 409.49364 253.180123 
L 410.27263 253.180123 
L 411.043106 253.180123 
L 411.805252 253.180123 
L 412.559247 254.319896 
L 413.305262 261.216 
L 414.043466 261.216 
L 414.774021 261.216 
L 415.497082 261.216 
L 416.212802 261.216 
L 416.921329 261.216 
" style="fill:none;stroke:#0000ff;stroke-linecap:square;stroke-width:1.5;"/>
   </g>
   <g id="line2d_39">
    <path clip-path="url(#pb259b6f3cf)" d="M -1 48.411676 
L 92.266783 48.428414 
L 141.132162 75.154523 
L 169.716575 94.910062 
L 189.99754 79.769583 
L 205.728678 97.148042 
L 218.581954 81.996005 
L 229.449243 85.072355 
L 238.862918 87.996549 
L 247.166367 90.801493 
L 254.594056 93.511403 
L 261.313218 107.654908 
L 267.447332 103.297071 
L 273.09017 108.46288 
L 278.314622 103.678349 
L 283.17847 109.096959 
L 287.728296 103.981216 
L 292.002201 109.610062 
L 296.031746 111.951556 
L 299.843368 113.807845 
L 303.459434 115.390474 
L 306.899035 116.954632 
L 310.178596 108.42891 
L 313.312349 117.148596 
L 316.31271 118.60822 
L 319.190572 120.05641 
L 321.955548 121.494649 
L 324.61616 122.924297 
L 327.18 117.287251 
L 329.653862 119.151623 
L 332.043848 121.021345 
L 334.35546 122.898056 
L 336.593674 124.783365 
L 338.76301 129.131482 
L 340.867579 124.975309 
L 342.911138 126.5897 
L 344.897124 125.010457 
L 346.828692 126.589708 
L 348.708746 125.042493 
L 350.539962 129.690534 
L 352.324813 125.18803 
L 354.065588 129.77606 
L 355.764414 125.322111 
L 357.423263 129.85495 
L 359.043974 125.446108 
L 360.628262 129.927985 
L 362.177727 130.544871 
L 363.693868 129.944408 
L 365.178088 130.552085 
L 366.631703 129.9597 
L 368.055951 126.027093 
L 369.451993 130.018686 
L 370.820926 130.637609 
L 372.163783 130.032064 
L 373.481538 130.64351 
L 374.775112 130.044621 
L 376.045378 126.505096 
L 377.29316 127.824712 
L 378.51924 127.914102 
L 379.724361 127.840367 
L 380.909226 127.914105 
L 382.074506 130.490825 
L 383.220838 127.98101 
L 384.348828 127.954893 
L 385.459053 127.981013 
L 386.552064 127.968178 
L 387.628388 127.981016 
L 388.688526 130.717366 
L 389.732957 131.100113 
L 390.762141 130.659951 
L 391.776516 131.10392 
L 392.776502 130.66813 
L 393.762502 127.13206 
L 394.734901 130.700344 
L 395.694071 131.150517 
L 396.640364 130.707795 
L 397.574124 131.153827 
L 398.495678 130.714918 
L 399.40534 127.401813 
L 400.303414 130.743078 
L 401.190191 127.447607 
L 402.065952 130.770068 
L 402.930967 127.491536 
L 403.785496 130.795966 
L 404.629792 127.533716 
L 405.464096 128.543842 
L 406.288641 128.616961 
L 407.103654 128.551976 
L 407.909352 128.616963 
L 408.705947 131.077843 
L 409.49364 128.652664 
L 410.27263 128.613082 
L 411.043106 128.652666 
L 411.805252 128.620347 
L 412.559247 128.652667 
L 413.305262 131.201443 
L 414.043466 131.504012 
L 414.774021 131.124113 
L 415.497082 131.506166 
L 416.212802 131.128776 
L 416.921329 127.880771 
" style="fill:none;stroke:#000000;stroke-linecap:square;stroke-opacity:0.6;stroke-width:0.5;"/>
   </g>
   <g id="line2d_40">
    <path clip-path="url(#pb259b6f3cf)" d="M -1 48.411676 
L 92.266783 48.428414 
L 141.132162 75.154523 
L 169.716575 94.910062 
L 189.99754 94.910062 
L 205.728678 97.148042 
L 218.581954 97.148042 
L 229.449243 97.148042 
L 238.862918 97.148042 
L 247.166367 97.148042 
L 254.594056 97.148042 
L 261.313218 107.654908 
L 267.447332 107.654908 
L 273.09017 108.46288 
L 278.314622 108.46288 
L 283.17847 109.096959 
L 287.728296 109.096959 
L 292.002201 109.610062 
L 296.031746 111.951556 
L 299.843368 113.807845 
L 303.459434 115.390474 
L 306.899035 116.954632 
L 310.178596 116.954632 
L 313.312349 117.148596 
L 316.31271 118.60822 
L 319.190572 120.05641 
L 321.955548 121.494649 
L 324.61616 122.924297 
L 327.18 122.924297 
L 329.653862 122.924297 
L 332.043848 122.924297 
L 334.35546 122.924297 
L 336.593674 124.783365 
L 338.76301 129.131482 
L 340.867579 129.131482 
L 342.911138 129.131482 
L 344.897124 129.131482 
L 346.828692 129.131482 
L 348.708746 129.131482 
L 350.539962 129.690534 
L 352.324813 129.690534 
L 354.065588 129.77606 
L 355.764414 129.77606 
L 357.423263 129.85495 
L 359.043974 129.85495 
L 360.628262 129.927985 
L 362.177727 130.544871 
L 363.693868 130.544871 
L 365.178088 130.552085 
L 366.631703 130.552085 
L 368.055951 130.552085 
L 369.451993 130.552085 
L 370.820926 130.637609 
L 372.163783 130.637609 
L 373.481538 130.64351 
L 374.775112 130.64351 
L 376.045378 130.64351 
L 377.29316 130.64351 
L 378.51924 130.64351 
L 379.724361 130.64351 
L 380.909226 130.64351 
L 382.074506 130.64351 
L 383.220838 130.64351 
L 384.348828 130.64351 
L 385.459053 130.64351 
L 386.552064 130.64351 
L 387.628388 130.64351 
L 388.688526 130.717366 
L 389.732957 131.100113 
L 390.762141 131.100113 
L 391.776516 131.10392 
L 392.776502 131.10392 
L 393.762502 131.10392 
L 394.734901 131.10392 
L 395.694071 131.150517 
L 396.640364 131.150517 
L 397.574124 131.153827 
L 398.495678 131.153827 
L 399.40534 131.153827 
L 400.303414 131.153827 
L 401.190191 131.153827 
L 402.065952 131.153827 
L 402.930967 131.153827 
L 403.785496 131.153827 
L 404.629792 131.153827 
L 405.464096 131.153827 
L 406.288641 131.153827 
L 407.103654 131.153827 
L 407.909352 131.153827 
L 408.705947 131.153827 
L 409.49364 131.153827 
L 410.27263 131.153827 
L 411.043106 131.153827 
L 411.805252 131.153827 
L 412.559247 131.153827 
L 413.305262 131.201443 
L 414.043466 131.504012 
L 414.774021 131.504012 
L 415.497082 131.506166 
L 416.212802 131.506166 
L 416.921329 131.506166 
" style="fill:none;stroke:#000000;stroke-linecap:square;stroke-width:1.5;"/>
   </g>
   <g id="line2d_41">
    <path clip-path="url(#pb259b6f3cf)" d="M -1 21.630726 
L 92.266783 21.632068 
" style="fill:none;stroke:#e60000;stroke-linecap:square;stroke-opacity:0.4;stroke-width:0.5;"/>
   </g>
   <g id="line2d_42">
    <path clip-path="url(#pb259b6f3cf)" d="M -1 21.630726 
L 92.266783 21.632068 
" style="fill:none;stroke:#ff0000;stroke-linecap:square;stroke-width:1.5;"/>
   </g>
   <g id="line2d_43">
    <path clip-path="url(#pb259b6f3cf)" d="M -1 21.630726 
L 92.266783 21.632068 
L 141.132162 22.517597 
L 169.716575 22.539118 
L 189.99754 25.082819 
L 205.728678 28.638942 
L 218.581954 28.686051 
L 229.449243 29.407026 
L 238.862918 29.798049 
L 247.166367 31.429829 
L 254.594056 39.503782 
L 261.313218 42.06678 
L 267.447332 42.102702 
L 273.09017 42.441503 
L 278.314622 42.451733 
L 283.17847 43.839189 
L 287.728296 50.828174 
L 292.002201 50.860433 
L 296.031746 51.386349 
L 299.843368 51.686494 
L 303.459434 51.695693 
L 306.899035 58.19327 
L 310.178596 60.292989 
L 313.312349 60.323163 
L 316.31271 60.819794 
L 319.190572 60.828822 
L 321.955548 62.076626 
L 324.61616 68.441209 
L 327.18 70.509473 
L 329.653862 71.015605 
L 332.043848 71.308314 
L 334.35546 71.317396 
L 336.593674 72.57902 
L 338.76301 74.5437 
L 340.867579 74.572183 
L 342.911138 75.045139 
L 344.897124 75.319609 
L 346.828692 76.531551 
L 348.708746 82.751105 
L 350.539962 84.783651 
L 352.324813 84.81322 
L 354.065588 85.102488 
L 355.764414 85.111515 
L 357.423263 86.372409 
L 359.043974 92.843824 
L 360.628262 92.850214 
L 362.177727 93.140362 
L 363.693868 93.288959 
L 365.178088 93.292129 
L 366.631703 99.540376 
L 368.055951 101.175531 
L 369.451993 101.18215 
L 370.820926 101.483232 
L 372.163783 101.486566 
L 373.481538 101.486877 
L 374.775112 108.000198 
L 376.045378 109.711405 
L 377.29316 110.031233 
L 378.51924 110.195533 
L 379.724361 110.199047 
L 380.909226 110.199375 
L 382.074506 111.866619 
L 383.220838 111.873385 
L 384.348828 112.181892 
L 385.459053 112.185316 
L 386.552064 112.122753 
L 387.628388 118.91275 
L 388.688526 120.68718 
L 389.732957 121.019643 
L 390.762141 121.190777 
L 391.776516 121.194443 
L 392.776502 121.152425 
L 393.762502 122.941586 
L 394.734901 122.94869 
L 395.694071 123.273191 
L 396.640364 123.440343 
L 397.574124 122.959902 
L 398.495678 130.556337 
L 399.40534 132.482027 
L 400.303414 132.489749 
L 401.190191 132.672341 
L 402.065952 132.676259 
L 402.930967 131.91202 
L 403.785496 140.157732 
L 404.629792 140.197409 
L 405.464096 140.852989 
L 406.288641 141.049016 
L 407.103654 141.053225 
L 407.909352 149.533561 
L 408.705947 151.81286 
L 409.49364 151.822183 
L 410.27263 152.249016 
L 411.043106 152.253773 
L 411.805252 152.254219 
L 412.559247 161.847613 
L 413.305262 164.454321 
L 414.043466 164.947631 
L 414.774021 165.202723 
L 415.497082 165.208207 
L 416.212802 165.208721 
L 416.921329 167.851983 
" style="fill:none;stroke:#00e600;stroke-linecap:square;stroke-opacity:0.2;stroke-width:0.5;"/>
   </g>
   <g id="line2d_44">
    <path clip-path="url(#pb259b6f3cf)" d="M -1 21.630726 
L 92.266783 21.632068 
L 141.132162 22.517597 
L 169.716575 22.539118 
L 189.99754 25.082819 
L 205.728678 28.638942 
L 218.581954 28.686051 
L 229.449243 29.407026 
L 238.862918 29.798049 
L 247.166367 31.429829 
L 254.594056 39.503782 
L 261.313218 42.06678 
L 267.447332 42.102702 
L 273.09017 42.441503 
L 278.314622 42.451733 
L 283.17847 43.839189 
L 287.728296 50.828174 
L 292.002201 50.860433 
L 296.031746 51.386349 
L 299.843368 51.686494 
L 303.459434 51.695693 
L 306.899035 58.19327 
L 310.178596 60.292989 
L 313.312349 60.323163 
L 316.31271 60.819794 
L 319.190572 60.828822 
L 321.955548 62.076626 
L 324.61616 68.441209 
L 327.18 70.509473 
L 329.653862 71.015605 
L 332.043848 71.308314 
L 334.35546 71.317396 
L 336.593674 72.57902 
L 338.76301 74.5437 
L 340.867579 74.572183 
L 342.911138 75.045139 
L 344.897124 75.319609 
L 346.828692 76.531551 
L 348.708746 82.751105 
L 350.539962 84.783651 
L 352.324813 84.81322 
L 354.065588 85.102488 
L 355.764414 85.111515 
L 357.423263 86.372409 
L 359.043974 92.843824 
L 360.628262 92.850214 
L 362.177727 93.140362 
L 363.693868 93.288959 
L 365.178088 93.292129 
L 366.631703 99.540376 
L 368.055951 101.175531 
L 369.451993 101.18215 
L 370.820926 101.483232 
L 372.163783 101.486566 
L 373.481538 101.486877 
L 374.775112 108.000198 
L 376.045378 109.711405 
L 377.29316 110.031233 
L 378.51924 110.195533 
L 379.724361 110.199047 
L 380.909226 110.199375 
L 382.074506 111.866619 
L 383.220838 111.873385 
L 384.348828 112.181892 
L 385.459053 112.185316 
L 386.552064 112.185316 
L 387.628388 118.91275 
L 388.688526 120.68718 
L 389.732957 121.019643 
L 390.762141 121.190777 
L 391.776516 121.194443 
L 392.776502 121.194443 
L 393.762502 122.941586 
L 394.734901 122.94869 
L 395.694071 123.273191 
L 396.640364 123.440343 
L 397.574124 123.440343 
L 398.495678 130.556337 
L 399.40534 132.482027 
L 400.303414 132.489749 
L 401.190191 132.672341 
L 402.065952 132.676259 
L 402.930967 132.676259 
L 403.785496 140.157732 
L 404.629792 140.197409 
L 405.464096 140.852989 
L 406.288641 141.049016 
L 407.103654 141.053225 
L 407.909352 149.533561 
L 408.705947 151.81286 
L 409.49364 151.822183 
L 410.27263 152.249016 
L 411.043106 152.253773 
L 411.805252 152.254219 
L 412.559247 161.847613 
L 413.305262 164.454321 
L 414.043466 164.947631 
L 414.774021 165.202723 
L 415.497082 165.208207 
L 416.212802 165.208721 
L 416.921329 167.851983 
" style="fill:none;stroke:#008000;stroke-linecap:square;stroke-width:1.5;"/>
   </g>
   <g id="patch_3">
    <path d="M 76.034056 273.312 
L 76.034056 7.2 
" style="fill:none;stroke:#000000;stroke-linecap:square;stroke-linejoin:miter;stroke-width:0.8;"/>
   </g>
   <g id="patch_4">
    <path d="M 433.154056 273.312 
L 433.154056 7.2 
" style="fill:none;stroke:#000000;stroke-linecap:square;stroke-linejoin:miter;stroke-width:0.8;"/>
   </g>
   <g id="patch_5">
    <path d="M 76.034056 273.312 
L 433.154056 273.312 
" style="fill:none;stroke:#000000;stroke-linecap:square;stroke-linejoin:miter;stroke-width:0.8;"/>
   </g>
   <g id="patch_6">
    <path d="M 76.034056 7.2 
L 433.154056 7.2 
" style="fill:none;stroke:#000000;stroke-linecap:square;stroke-linejoin:miter;stroke-width:0.8;"/>
   </g>
   <g id="legend_1">
    <g id="patch_7">
     <path d="M 90.034056 263.312 
L 184.128158 263.312 
Q 188.128158 263.312 188.128158 259.312 
L 188.128158 149.809466 
Q 188.128158 145.809466 184.128158 145.809466 
L 90.034056 145.809466 
Q 86.034056 145.809466 86.034056 149.809466 
L 86.034056 259.312 
Q 86.034056 263.312 90.034056 263.312 
z
" style="fill:#ffffff;opacity:0.8;stroke:#cccccc;stroke-linejoin:miter;"/>
    </g>
    <g id="line2d_45">
     <path d="M 94.034056 160.809466 
L 134.034056 160.809466 
" style="fill:none;stroke:#0000e6;stroke-linecap:square;stroke-opacity:0.8;stroke-width:0.5;"/>
    </g>
    <g id="line2d_46"/>
    <g id="text_8">
     <!-- $M1$ -->
     <defs>
      <path d="M 90.796875 60.71875 
C 91.703125 64.109375 91.90625 65.109375 99 65.109375 
C 100.90625 65.109375 101.796875 65.109375 101.796875 67 
C 101.796875 68 101.09375 68 99.203125 68 
L 87.203125 68 
C 84.703125 68 84.59375 67.90625 83.5 66.296875 
L 47 8.78125 
L 39.5 65.796875 
C 39.203125 68 39.09375 68 36.5 68 
L 24.09375 68 
C 22.203125 68 21.296875 68 21.296875 66.109375 
C 21.296875 65.109375 22.203125 65.109375 23.703125 65.109375 
C 29.796875 65.109375 29.796875 64.3125 29.796875 63.21875 
C 29.796875 63.03125 29.796875 62.421875 29.40625 60.921875 
L 16.59375 9.90625 
C 15.40625 5.109375 13.09375 2.90625 6.40625 2.90625 
C 6.09375 2.90625 4.90625 2.90625 4.90625 1.140625 
C 4.90625 0 5.796875 0 6.203125 0 
C 8.203125 0 13.296875 0 15.296875 0 
L 20.09375 0 
C 21.5 0 23.203125 0 24.59375 0 
C 25.296875 0 26.40625 0 26.40625 1.90625 
C 26.40625 2.8125 25.40625 2.90625 25 2.90625 
C 21.703125 2.90625 18.5 3.5 18.5 7.09375 
C 18.5 8.09375 18.5 8.1875 18.90625 9.578125 
L 32.703125 64.515625 
L 32.796875 64.515625 
L 41.09375 2.6875 
C 41.40625 0.296875 41.5 0 42.40625 0 
C 43.5 0 44 0.796875 44.5 1.703125 
L 84.703125 65.015625 
L 84.796875 65.015625 
L 70.296875 7.390625 
C 69.40625 3.90625 69.203125 2.90625 62.203125 2.90625 
C 60.296875 2.90625 59.296875 2.90625 59.296875 1.09375 
C 59.296875 0 60.203125 0 60.796875 0 
C 62.5 0 64.5 0 66.203125 0 
L 78 0 
C 79.703125 0 81.796875 0 83.5 0 
C 84.296875 0 85.40625 0 85.40625 1.90625 
C 85.40625 2.90625 84.5 2.90625 83 2.90625 
C 76.90625 2.90625 76.90625 3.65625 76.90625 4.59375 
C 76.90625 4.703125 76.90625 5.390625 77.09375 6.1875 
z
" id="CMMI12-77"/>
     </defs>
     <g transform="translate(150.034056 167.809466)scale(0.2 -0.2)">
      <use transform="scale(0.996264)" xlink:href="#CMMI12-77"/>
      <use transform="translate(104.780079 0)scale(0.996264)" xlink:href="#CMR17-49"/>
     </g>
    </g>
    <g id="line2d_47">
     <path d="M 94.034056 188.685099 
L 134.034056 188.685099 
" style="fill:none;stroke:#000000;stroke-linecap:square;stroke-opacity:0.6;stroke-width:0.5;"/>
    </g>
    <g id="line2d_48"/>
    <g id="text_9">
     <!-- $M2$ -->
     <g transform="translate(150.034056 195.685099)scale(0.2 -0.2)">
      <use transform="scale(0.996264)" xlink:href="#CMMI12-77"/>
      <use transform="translate(104.780079 0)scale(0.996264)" xlink:href="#CMR17-50"/>
     </g>
    </g>
    <g id="line2d_49">
     <path d="M 94.034056 216.560733 
L 134.034056 216.560733 
" style="fill:none;stroke:#e60000;stroke-linecap:square;stroke-opacity:0.4;stroke-width:0.5;"/>
    </g>
    <g id="line2d_50"/>
    <g id="text_10">
     <!-- $M3$ -->
     <defs>
      <path d="M 22.09375 33.703125 
C 31 33.703125 34.90625 25.96875 34.90625 17.03125 
C 34.90625 5 28.5 0.390625 22.703125 0.390625 
C 17.40625 0.390625 8.796875 3.03125 6.09375 10.828125 
C 6.59375 10.625 7.09375 10.625 7.59375 10.625 
C 10 10.625 11.796875 12.21875 11.796875 14.8125 
C 11.796875 17.703125 9.59375 19 7.59375 19 
C 5.90625 19 3.296875 18.203125 3.296875 14.46875 
C 3.296875 5.234375 12.296875 -2 22.90625 -2 
C 34 -2 42.5 6.71875 42.5 16.953125 
C 42.5 26.671875 34.5 33.703125 25 34.796875 
C 32.59375 36.375 39.90625 43.0625 39.90625 52.015625 
C 39.90625 59.6875 32 65.296875 23 65.296875 
C 13.90625 65.296875 5.90625 59.828125 5.90625 52.015625 
C 5.90625 48.59375 8.5 48 9.796875 48 
C 11.90625 48 13.703125 49.296875 13.703125 51.890625 
C 13.703125 54.46875 11.90625 55.765625 9.796875 55.765625 
C 9.40625 55.765625 8.90625 55.765625 8.5 55.578125 
C 11.40625 61.859375 19.296875 63 22.796875 63 
C 26.296875 63 32.90625 61.328125 32.90625 51.875 
C 32.90625 49.109375 32.5 44.1875 29.09375 39.84375 
C 26.09375 36 22.703125 36 19.40625 35.6875 
C 18.90625 35.6875 16.59375 35.453125 16.203125 35.453125 
C 15.5 35.359375 15.09375 35.265625 15.09375 34.5 
C 15.09375 33.796875 15.203125 33.703125 17.203125 33.703125 
z
" id="CMR17-51"/>
     </defs>
     <g transform="translate(150.034056 223.560733)scale(0.2 -0.2)">
      <use transform="scale(0.996264)" xlink:href="#CMMI12-77"/>
      <use transform="translate(104.780079 0)scale(0.996264)" xlink:href="#CMR17-51"/>
     </g>
    </g>
    <g id="line2d_51">
     <path d="M 94.034056 244.436366 
L 134.034056 244.436366 
" style="fill:none;stroke:#00e600;stroke-linecap:square;stroke-opacity:0.2;stroke-width:0.5;"/>
    </g>
    <g id="line2d_52"/>
    <g id="text_11">
     <!-- $M4$ -->
     <defs>
      <path d="M 33.59375 64.40625 
C 33.59375 66.5 33.5 66.5 31.703125 66.5 
L 2 19.59375 
L 2 17 
L 27.796875 17 
L 27.796875 7.140625 
C 27.796875 3.5 27.59375 2.5 20.59375 2.5 
L 18.703125 2.5 
L 18.703125 0 
C 21.90625 0 27.296875 0 30.703125 0 
C 34.09375 0 39.5 0 42.703125 0 
L 42.703125 2.5 
L 40.796875 2.5 
C 33.796875 2.5 33.59375 3.5 33.59375 7.140625 
L 33.59375 17 
L 43.796875 17 
L 43.796875 19.59375 
L 33.59375 19.59375 
z
M 28.09375 57.859375 
L 28.09375 19.59375 
L 4 19.59375 
z
" id="CMR17-52"/>
     </defs>
     <g transform="translate(150.034056 251.436366)scale(0.2 -0.2)">
      <use transform="scale(0.996264)" xlink:href="#CMMI12-77"/>
      <use transform="translate(104.780079 0)scale(0.996264)" xlink:href="#CMR17-52"/>
     </g>
    </g>
   </g>
  </g>
 </g>
 <defs>
  <clipPath id="pb259b6f3cf">
   <rect height="266.112" width="357.12" x="76.034056" y="7.2"/>
  </clipPath>
 </defs>
</svg>
